<svg class="svg-icon" style="width: 40px; height: 40px;vertical-align: middle;fill: currentColor;overflow: hidden;" viewBox="0 0 1024 1024" version="1.1" xmlns="http://www.w3.org/2000/svg"><path d="M504 434.944L301.664 647.552l57.92 55.152L464 593.024V848h80V593.008l104.4 109.696 57.936-55.152L504 434.944z m265.68-82.112C733.6 220.896 614.88 128 476.96 128c-90.112 0-170.576 33.28-226.592 93.712-50.16 54.096-77.264 127.328-77.84 208.752C85.04 464.384 32 540.128 32 634.528 32 752.24 127.296 848 244.416 848H352v-80h-107.584C171.408 768 112 708.128 112 634.528c0-67.76 41.632-118.752 111.36-136.432l32.608-8.256-2.56-33.536c-5.52-72.688 13.712-135.008 55.632-180.208C349.728 232.16 409.36 208 476.96 208c108.928 0 201.648 79.04 220.448 187.92l5.312 30.704 31.04 2.384C838.72 437.056 912 506.768 912 598.544 912 691.984 836.656 768 744.032 768H656v80h88.032C880.768 848 992 736.096 992 598.544c0-126.128-89.984-223.728-222.32-245.712z" fill="#1475cf" /></svg>